<svg width="161" height="18" viewBox="0 0 161 18" fill="none" xmlns="http://www.w3.org/2000/svg">
<path d="M7.272 0.288002C8.76 0.288002 10.052 0.536001 11.148 1.032C12.244 1.528 13.088 2.232 13.68 3.144C14.272 4.056 14.568 5.136 14.568 6.384C14.568 7.616 14.272 8.692 13.68 9.612C13.088 10.532 12.244 11.236 11.148 11.724C10.052 12.212 8.76 12.456 7.272 12.456H3.888V17.088H0V0.288002H7.272ZM7.05601 9.288C8.22401 9.288 9.11201 9.036 9.72 8.532C10.328 8.028 10.632 7.312 10.632 6.384C10.632 5.44 10.328 4.716 9.72 4.212C9.11201 3.708 8.22401 3.456 7.05601 3.456H3.888V9.288H7.05601ZM26.136 17.376C24.392 17.376 22.82 17 21.42 16.248C20.02 15.496 18.924 14.46 18.132 13.14C17.34 11.82 16.944 10.336 16.944 8.688C16.944 7.04 17.34 5.556 18.132 4.236C18.924 2.916 20.02 1.88 21.42 1.128C22.82 0.375999 24.392 0 26.136 0C27.88 0 29.448 0.375999 30.84 1.128C32.232 1.88 33.328 2.916 34.128 4.236C34.928 5.556 35.328 7.04 35.328 8.688C35.328 10.336 34.928 11.82 34.128 13.14C33.328 14.46 32.232 15.496 30.84 16.248C29.448 17 27.88 17.376 26.136 17.376ZM26.136 14.064C27.128 14.064 28.024 13.836 28.824 13.38C29.624 12.924 30.252 12.288 30.708 11.472C31.164 10.656 31.392 9.728 31.392 8.688C31.392 7.648 31.164 6.72 30.708 5.904C30.252 5.088 29.624 4.452 28.824 3.996C28.024 3.54 27.128 3.312 26.136 3.312C25.144 3.312 24.248 3.54 23.448 3.996C22.648 4.452 22.02 5.088 21.564 5.904C21.108 6.72 20.88 7.648 20.88 8.688C20.88 9.728 21.108 10.656 21.564 11.472C22.02 12.288 22.648 12.924 23.448 13.38C24.248 13.836 25.144 14.064 26.136 14.064ZM54.096 0.288002V17.088H50.904L42.528 6.888V17.088H38.688V0.288002H41.904L50.256 10.488V0.288002H54.096ZM65.736 0.288002H73.368C75.192 0.288002 76.804 0.636002 78.204 1.332C79.604 2.028 80.692 3.008 81.468 4.272C82.244 5.536 82.632 7.008 82.632 8.688C82.632 10.368 82.244 11.84 81.468 13.104C80.692 14.368 79.604 15.348 78.204 16.044C76.804 16.74 75.192 17.088 73.368 17.088H65.736V0.288002ZM73.176 13.896C74.856 13.896 76.196 13.428 77.196 12.492C78.196 11.556 78.696 10.288 78.696 8.688C78.696 7.088 78.196 5.82 77.196 4.884C76.196 3.948 74.856 3.48 73.176 3.48H69.624V13.896H73.176ZM99 13.968V17.088H85.992V0.288002H98.688V3.408H89.856V7.056H97.656V10.08H89.856V13.968H99ZM108.048 17.376C106.72 17.376 105.436 17.196 104.196 16.836C102.956 16.476 101.96 16.008 101.208 15.432L102.528 12.504C103.248 13.032 104.104 13.456 105.096 13.776C106.088 14.096 107.08 14.256 108.072 14.256C109.176 14.256 109.992 14.092 110.52 13.764C111.048 13.436 111.312 13 111.312 12.456C111.312 12.056 111.156 11.724 110.844 11.46C110.532 11.196 110.132 10.984 109.644 10.824C109.156 10.664 108.496 10.488 107.664 10.296C106.384 9.992 105.336 9.688 104.52 9.384C103.704 9.08 103.004 8.592 102.42 7.92C101.836 7.248 101.544 6.352 101.544 5.232C101.544 4.256 101.808 3.372 102.336 2.58C102.864 1.788 103.66 1.16 104.724 0.696001C105.788 0.232 107.088 0 108.624 0C109.696 0 110.744 0.128 111.768 0.384003C112.792 0.640001 113.688 1.008 114.456 1.488L113.256 4.44C111.704 3.56 110.152 3.12 108.6 3.12C107.512 3.12 106.708 3.296 106.188 3.648C105.668 4 105.408 4.464 105.408 5.04C105.408 5.616 105.708 6.044 106.308 6.324C106.908 6.604 107.824 6.88 109.056 7.152C110.336 7.456 111.384 7.76 112.2 8.064C113.016 8.368 113.716 8.848 114.3 9.504C114.884 10.16 115.176 11.048 115.176 12.168C115.176 13.128 114.908 14.004 114.372 14.796C113.836 15.588 113.032 16.216 111.96 16.68C110.888 17.144 109.584 17.376 108.048 17.376ZM118.272 0.288002H122.16V17.088H118.272V0.288002ZM137.928 8.424H141.48V15.24C140.568 15.928 139.512 16.456 138.312 16.824C137.112 17.192 135.904 17.376 134.688 17.376C132.944 17.376 131.376 17.004 129.984 16.26C128.592 15.516 127.5 14.484 126.708 13.164C125.916 11.844 125.52 10.352 125.52 8.688C125.52 7.024 125.916 5.532 126.708 4.212C127.5 2.892 128.6 1.86 130.008 1.116C131.416 0.372 133 0 134.76 0C136.232 0 137.568 0.248001 138.768 0.744001C139.968 1.24 140.976 1.96 141.792 2.904L139.296 5.208C138.096 3.944 136.648 3.312 134.952 3.312C133.88 3.312 132.928 3.536 132.096 3.984C131.264 4.432 130.616 5.064 130.152 5.88C129.688 6.696 129.456 7.632 129.456 8.688C129.456 9.728 129.688 10.656 130.152 11.472C130.616 12.288 131.26 12.924 132.084 13.38C132.908 13.836 133.848 14.064 134.904 14.064C136.024 14.064 137.032 13.824 137.928 13.344V8.424ZM160.92 0.288002V17.088H157.728L149.352 6.888V17.088H145.512V0.288002H148.728L157.08 10.488V0.288002H160.92Z" fill="white"/>
</svg>
